<svg width="21" height="20" viewBox="0 0 21 20" fill="none" xmlns="http://www.w3.org/2000/svg">
<path d="M15.6665 6.66669C15.6665 5.3406 15.1397 4.06883 14.202 3.13115C13.2644 2.19347 11.9926 1.66669 10.6665 1.66669C9.34042 1.66669 8.06865 2.19347 7.13097 3.13115C6.19329 4.06883 5.6665 5.3406 5.6665 6.66669C5.6665 12.5 3.1665 14.1667 3.1665 14.1667H18.1665C18.1665 14.1667 15.6665 12.5 15.6665 6.66669Z" stroke="#141824" stroke-opacity="0.65" stroke-width="1.66667" stroke-linecap="round" stroke-linejoin="round"/>
<path d="M12.1079 17.5C11.9614 17.7526 11.7511 17.9622 11.4981 18.1079C11.2451 18.2537 10.9583 18.3304 10.6663 18.3304C10.3743 18.3304 10.0874 18.2537 9.83442 18.1079C9.58141 17.9622 9.37112 17.7526 9.22461 17.5" stroke="#141824" stroke-opacity="0.65" stroke-width="1.66667" stroke-linecap="round" stroke-linejoin="round"/>
</svg>
