<svg width="16" height="17" viewBox="0 0 16 17" fill="none" xmlns="http://www.w3.org/2000/svg">
<path d="M14.1399 11.0633C13.7158 12.0663 13.0525 12.9501 12.2079 13.6375C11.3633 14.3249 10.3631 14.7949 9.2949 15.0065C8.22668 15.2181 7.12289 15.1647 6.08004 14.8512C5.03719 14.5376 4.08703 13.9733 3.31262 13.2077C2.53822 12.4421 1.96315 11.4985 1.6377 10.4593C1.31225 9.42006 1.24632 8.31695 1.44568 7.24638C1.64503 6.17582 2.10361 5.17038 2.78131 4.31798C3.45901 3.46558 4.3352 2.79217 5.33328 2.35663" stroke="#525B75" stroke-width="1.33333" stroke-linecap="round" stroke-linejoin="round"/>
<path d="M14.6667 8.46995C14.6667 7.59447 14.4942 6.72756 14.1592 5.91873C13.8242 5.10989 13.3331 4.37496 12.714 3.75591C12.095 3.13685 11.3601 2.64578 10.5512 2.31075C9.74239 1.97572 8.87548 1.80328 8 1.80328V8.46995H14.6667Z" stroke="#525B75" stroke-width="1.33333" stroke-linecap="round" stroke-linejoin="round"/>
</svg>
